<svg width="17" height="19" viewBox="0 0 17 19" fill="none" xmlns="http://www.w3.org/2000/svg">
<path d="M9.5 1.375V2.00781C12.0312 2.42969 14 4.64453 14 7.28125V8.47656C14 10.0586 14.5273 11.6055 15.5117 12.8711L16.0391 13.5039C16.25 13.7852 16.2852 14.1367 16.1445 14.418C16.0039 14.6992 15.7227 14.875 15.4062 14.875H1.34375C0.992188 14.875 0.710938 14.6992 0.570312 14.418C0.429688 14.1367 0.464844 13.7852 0.675781 13.5039L1.20312 12.8711C2.1875 11.6055 2.75 10.0586 2.75 8.47656V7.28125C2.75 4.64453 4.68359 2.42969 7.25 2.00781V1.375C7.25 0.777344 7.74219 0.25 8.375 0.25C8.97266 0.25 9.5 0.777344 9.5 1.375ZM8.09375 3.625C6.05469 3.625 4.4375 5.27734 4.4375 7.28125V8.47656C4.4375 10.1641 3.94531 11.7812 3.03125 13.1875H13.6836C12.7695 11.7812 12.3125 10.1641 12.3125 8.47656V7.28125C12.3125 5.27734 10.6602 3.625 8.65625 3.625H8.09375ZM10.625 16C10.625 16.5977 10.3789 17.1953 9.95703 17.6172C9.53516 18.0391 8.9375 18.25 8.375 18.25C7.77734 18.25 7.17969 18.0391 6.75781 17.6172C6.33594 17.1953 6.125 16.5977 6.125 16H10.625Z" fill="#AAAAAA"/>
</svg>
