<svg width="23" height="19" viewBox="0 0 23 19" fill="none" xmlns="http://www.w3.org/2000/svg">
<path d="M11.2148 11.5C9.21094 11.5 7.55859 9.88281 7.59375 7.84375C7.59375 5.83984 9.21094 4.1875 11.2148 4.1875C13.2188 4.1875 14.8711 5.83984 14.8711 7.84375C14.8711 9.88281 13.2539 11.5 11.2148 11.5ZM11.2148 5.875C10.1602 5.875 9.24609 6.78906 9.24609 7.84375C9.24609 8.93359 10.1602 9.8125 11.2148 9.8125C12.3047 9.8125 13.1836 8.93359 13.1836 7.84375C13.1836 6.78906 12.3047 5.875 11.2148 5.875ZM18 5.875C16.418 5.875 15.1875 4.64453 15.1875 3.0625C15.1875 1.51562 16.418 0.25 18 0.25C19.5469 0.25 20.8125 1.51562 20.8125 3.0625C20.8125 4.64453 19.5469 5.875 18 5.875ZM12.9727 12.625C15.75 12.625 18 14.7344 18 17.3359C18 17.8633 17.543 18.25 16.9805 18.25H5.48438C4.92188 18.25 4.5 17.8633 4.5 17.3359C4.5 14.7344 6.71484 12.625 9.49219 12.625H12.9727ZM6.25781 16.5625H16.207C15.8203 15.2969 14.5195 14.3125 12.9727 14.3125H9.45703C7.91016 14.3125 6.60938 15.2969 6.25781 16.5625ZM19.3711 7C21.0938 7 22.5 8.47656 22.5 10.3047C22.5 10.6562 22.2188 10.9375 21.8672 10.9375H14.8359C15.5742 10.1289 15.9961 9.03906 15.9961 7.84375C15.9961 7.66797 15.9609 7.49219 15.9609 7.31641C16.3477 7.14062 16.7695 7 17.2266 7H19.3711ZM6.43359 7.84375C6.43359 9.03906 6.89062 10.1289 7.62891 10.9375H0.597656C0.246094 10.9375 0 10.6562 0 10.3047C0 8.47656 1.37109 7 3.09375 7H5.23828C5.69531 7 6.11719 7.10547 6.50391 7.31641C6.46875 7.49219 6.43359 7.66797 6.43359 7.84375ZM4.5 5.875C2.91797 5.875 1.6875 4.64453 1.6875 3.0625C1.6875 1.51562 2.91797 0.25 4.5 0.25C6.04688 0.25 7.3125 1.51562 7.3125 3.0625C7.3125 4.64453 6.04688 5.875 4.5 5.875Z" fill="#AAAAAA"/>
</svg>
