<svg width="25" height="24" viewBox="0 0 25 24" fill="none" xmlns="http://www.w3.org/2000/svg">
<g id="Home">
<path id="&#238;&#146;&#135;" d="M12.0104 4.16406C12.2917 3.94531 12.6979 3.94531 12.9792 4.16406L21.2292 11.1641C21.5417 11.4453 21.5729 11.9141 21.3229 12.2266C21.0417 12.5391 20.5729 12.5703 20.2604 12.3203L19.5104 11.6641V17.4766C19.5104 18.8828 18.3854 19.9766 17.0104 19.9766H8.01042C6.60417 19.9766 5.51042 18.8828 5.51042 17.4766V11.6641L4.72917 12.3203C4.41667 12.5703 3.94792 12.5391 3.66667 12.2266C3.41667 11.9141 3.44792 11.4453 3.76042 11.1641L12.0104 4.16406ZM7.01042 10.3828V17.4766C7.01042 18.0391 7.44792 18.4766 8.01042 18.4766H17.0104C17.5417 18.4766 18.0104 18.0391 18.0104 17.4766V10.3828L12.5104 5.72656L7.01042 10.3828Z" fill="#99A2B3"/>
</g>
</svg>
