<svg width="25" height="24" viewBox="0 0 25 24" fill="none" xmlns="http://www.w3.org/2000/svg">
<g id="Menu">
<path id="&#238;&#134;&#150;" d="M5.5 6.5C5.5 5.6875 6.15625 5 7 5H10C10.8125 5 11.5 5.6875 11.5 6.5V9.5C11.5 10.3438 10.8125 11 10 11H7C6.15625 11 5.5 10.3438 5.5 9.5V6.5ZM7 9.5H10V6.5H7V9.5ZM5.5 14.5C5.5 13.6875 6.15625 13 7 13H10C10.8125 13 11.5 13.6875 11.5 14.5V17.5C11.5 18.3438 10.8125 19 10 19H7C6.15625 19 5.5 18.3438 5.5 17.5V14.5ZM7 17.5H10V14.5H7V17.5ZM18 5C18.8125 5 19.5 5.6875 19.5 6.5V9.5C19.5 10.3438 18.8125 11 18 11H15C14.1562 11 13.5 10.3438 13.5 9.5V6.5C13.5 5.6875 14.1562 5 15 5H18ZM18 6.5H15V9.5H18V6.5ZM13.5 14.5C13.5 13.6875 14.1562 13 15 13H18C18.8125 13 19.5 13.6875 19.5 14.5V17.5C19.5 18.3438 18.8125 19 18 19H15C14.1562 19 13.5 18.3438 13.5 17.5V14.5ZM15 17.5H18V14.5H15V17.5Z" fill="#99A2B3"/>
</g>
</svg>
