<svg width="25" height="24" viewBox="0 0 25 24" fill="none" xmlns="http://www.w3.org/2000/svg">
<g id="Order">
<path id="&#239;&#156;&#178;" d="M9.5 15C9.75 15 10 15.25 10 15.5V16.5C10 16.7812 9.75 17 9.5 17H8.5C8.21875 17 8 16.7812 8 16.5V15.5C8 15.25 8.21875 15 8.5 15H9.5ZM9.5 11C9.75 11 10 11.25 10 11.5V12.5C10 12.7812 9.75 13 9.5 13H8.5C8.21875 13 8 12.7812 8 12.5V11.5C8 11.25 8.21875 11 8.5 11H9.5ZM9.5 7C9.75 7 10 7.25 10 7.5V8.5C10 8.78125 9.75 9 9.5 9H8.5C8.21875 9 8 8.78125 8 8.5V7.5C8 7.25 8.21875 7 8.5 7H9.5ZM17.5 4C18.5938 4 19.5 4.90625 19.5 6V18C19.5 19.125 18.5938 20 17.5 20H7.5C6.375 20 5.5 19.125 5.5 18V6C5.5 4.90625 6.375 4 7.5 4H17.5ZM18 18V6C18 5.75 17.75 5.5 17.5 5.5H7.5C7.21875 5.5 7 5.75 7 6V18C7 18.2812 7.21875 18.5 7.5 18.5H17.5C17.75 18.5 18 18.2812 18 18ZM16.25 7.25C16.6562 7.25 17 7.59375 17 8C17 8.4375 16.6562 8.75 16.25 8.75H11.75C11.3125 8.75 11 8.4375 11 8C11 7.59375 11.3125 7.25 11.75 7.25H16.25ZM16.25 11.25C16.6562 11.25 17 11.5938 17 12C17 12.4375 16.6562 12.75 16.25 12.75H11.75C11.3125 12.75 11 12.4375 11 12C11 11.5938 11.3125 11.25 11.75 11.25H16.25ZM16.25 15.25C16.6562 15.25 17 15.5938 17 16C17 16.4375 16.6562 16.75 16.25 16.75H11.75C11.3125 16.75 11 16.4375 11 16C11 15.5938 11.3125 15.25 11.75 15.25H16.25Z" fill="#99A2B3"/>
</g>
</svg>
