<svg width="19" height="19" viewBox="0 0 19 19" fill="none" xmlns="http://www.w3.org/2000/svg">
<path d="M16.8125 11.5C17.7266 11.5 18.5 12.2734 18.5 13.1875V16C18.5 17.2656 17.4805 18.25 16.25 18.25H2.75C1.48438 18.25 0.5 17.2656 0.5 16V12.625C0.5 12.0273 0.992188 11.5 1.625 11.5H5.5625C5.87891 11.5 6.16016 11.7109 6.30078 11.9922L7.17969 13.75H11.7852L12.6641 11.9922C12.8047 11.7109 13.0859 11.5 13.4375 11.5H16.8125ZM16.8125 16V13.1875H13.9297L13.0508 14.9805C12.9102 15.2617 12.6289 15.4375 12.3125 15.4375H6.6875C6.33594 15.4375 6.05469 15.2617 5.91406 14.9805L5.03516 13.1875H2.1875V16C2.1875 16.3164 2.43359 16.5625 2.75 16.5625H16.25C16.5312 16.5625 16.8125 16.3164 16.8125 16ZM8.86719 11.2539L5.21094 7.31641C4.89453 6.96484 4.89453 6.4375 5.24609 6.12109C5.59766 5.80469 6.125 5.80469 6.44141 6.15625L8.65625 8.51172V1.09375C8.65625 0.636719 9.00781 0.25 9.5 0.25C9.95703 0.25 10.3438 0.636719 10.3438 1.09375V8.51172L12.5234 6.15625C12.8398 5.80469 13.3672 5.80469 13.7188 6.12109C14.0703 6.4375 14.0703 6.96484 13.7539 7.31641L10.0977 11.2539C9.95703 11.4297 9.71094 11.5 9.5 11.5C9.25391 11.5 9.00781 11.4297 8.86719 11.2539Z" fill="#AAAAAA"/>
</svg>
