<svg width="25" height="24" viewBox="0 0 25 24" fill="none" xmlns="http://www.w3.org/2000/svg">
<path d="M8.5 5.5C8.5 4.6875 9.15625 4 10 4H11.5V6.5C11.5 6.78125 11.7188 7 12 7H13C13.25 7 13.5 6.78125 13.5 6.5V4H15C15.8125 4 16.5 4.6875 16.5 5.5V9.5C16.5 10.3438 15.8125 11 15 11H10C9.15625 11 8.5 10.3438 8.5 9.5V5.5ZM6.5 13V15.5C6.5 15.7812 6.71875 16 7 16H8C8.25 16 8.5 15.7812 8.5 15.5V13H10C10.8125 13 11.5 13.6875 11.5 14.5V18.5C11.5 19.3438 10.8125 20 10 20H5C4.15625 20 3.5 19.3438 3.5 18.5V14.5C3.5 13.6875 4.15625 13 5 13H6.5ZM16.5 13V15.5C16.5 15.7812 16.7188 16 17 16H18C18.25 16 18.5 15.7812 18.5 15.5V13H20C20.8125 13 21.5 13.6875 21.5 14.5V18.5C21.5 19.3438 20.8125 20 20 20H15C14.1562 20 13.5 19.3438 13.5 18.5V14.5C13.5 13.6875 14.1562 13 15 13H16.5Z" fill="#00A66A"/>
</svg>
