<svg width="17" height="19" viewBox="0 0 17 19" fill="none" xmlns="http://www.w3.org/2000/svg">
<path d="M12.875 4.75C12.875 7.24609 10.8359 9.25 8.375 9.25C5.87891 9.25 3.875 7.24609 3.875 4.75C3.875 2.28906 5.87891 0.25 8.375 0.25C10.8359 0.25 12.875 2.28906 12.875 4.75ZM7.84766 12.9062L6.6875 10.9375H10.0625L8.86719 12.9062L10.0625 17.2656L11.4336 11.5703C14.1406 11.9922 16.25 14.3477 16.25 17.1953C16.25 17.793 15.7578 18.25 15.1602 18.25H1.55469C0.957031 18.25 0.5 17.793 0.5 17.1953C0.5 14.3477 2.57422 11.9922 5.28125 11.5703L6.65234 17.2656L7.84766 12.9062Z" fill="#005862"/>
</svg>
