<svg width="60" height="60" viewBox="0 0 60 60" fill="none" xmlns="http://www.w3.org/2000/svg">
<g id="image" clip-path="url(#clip0_151_5920)">
<path id="Vector" d="M21.1647 31.0057H7.81949C7.54575 31.0057 7.32373 31.2278 7.32373 31.5015V56.467H21.6604V31.5015C21.6604 31.2278 21.4384 31.0057 21.1647 31.0057Z" fill="#78C2A4"/>
<path id="Vector_2" d="M16.9729 31.0057V52.0002C16.9729 53.1729 16.0222 54.1233 14.8498 54.1233H7.32373V56.467H21.6604V31.5015C21.6604 31.2278 21.4384 31.0057 21.1647 31.0057H16.9729Z" fill="#4FAB86"/>
<path id="Vector_3" d="M10.2534 53.1116V34.3616C10.2534 34.1263 10.4438 33.9354 10.6796 33.9354H18.3046C18.5399 33.9354 18.7307 34.1263 18.7307 34.3616V53.1116C18.7307 53.3469 18.5399 53.5373 18.3046 53.5373H10.6796C10.4443 53.5373 10.2534 53.3469 10.2534 53.1116Z" fill="#B2EBF2"/>
<path id="Vector_4" d="M15.2151 33.9354V48.122C15.2151 49.8185 13.84 51.194 12.1431 51.194H10.2534V53.1116C10.2534 53.3469 10.4438 53.5378 10.6796 53.5378H18.3046C18.5399 53.5378 18.7307 53.3469 18.7307 53.1116V34.3616C18.7307 34.1263 18.5399 33.9359 18.3046 33.9359H15.2151V33.9354Z" fill="#80DEEA"/>
<path id="Vector_5" d="M0.878906 52.3229H7.32376V56.4675H0.878906V52.3229Z" fill="#78909C"/>
<path id="Vector_6" d="M0.878906 54.1237H7.32376V56.4674H0.878906V54.1237Z" fill="#546E7A"/>
<path id="Vector_7" d="M21.6604 52.3229H59.121V56.4675H21.6604V52.3229Z" fill="#78909C"/>
<path id="Vector_8" d="M54.4335 52.3229V52.8832C54.4335 53.568 53.8783 54.1233 53.193 54.1233H21.6604V56.467H59.121V52.3229H54.4335Z" fill="#546E7A"/>
<path id="Vector_9" d="M2.63806 26.1085V52.3228H7.32373V31.5014C7.32373 31.2277 7.54575 31.0057 7.81903 31.0057H21.1647C21.4384 31.0057 21.6604 31.2277 21.6604 31.5014V52.3228H57.3619V26.1085H2.63806Z" fill="#DCE6EB"/>
<path id="Vector_10" d="M57.3619 26.1085V52.3228H21.6604V49.9791H43.9755C48.7797 49.9791 52.6744 46.0844 52.6744 41.2802V26.1085H57.3619ZM2.63806 49.9791V52.3228H7.32373V49.9791H2.63806Z" fill="#B9C3CD"/>
<path id="Vector_11" d="M48.8795 45.2669H30.1427C29.6424 45.2669 29.2368 44.8613 29.2368 44.361V31.9117C29.2368 31.4113 29.6424 31.0057 30.1427 31.0057H48.8795C49.3798 31.0057 49.7854 31.4113 49.7854 31.9117V44.361C49.7854 44.8613 49.3798 45.2669 48.8795 45.2669Z" fill="#B2EBF2"/>
<path id="Vector_12" d="M48.8795 31.0057H45.0979V39.4684C45.0979 41.3764 43.5511 42.9232 41.6427 42.9232H29.2368V44.361C29.2368 44.8613 29.6424 45.2669 30.1427 45.2669H48.8795C49.3798 45.2669 49.7854 44.8613 49.7854 44.361V31.9117C49.7854 31.4113 49.3798 31.0057 48.8795 31.0057Z" fill="#80DEEA"/>
<path id="Vector_13" d="M21.5803 40.0552V47.4174H18.7307V40.0552H21.5803Z" fill="#78909C"/>
<path id="Vector_14" d="M41.6706 45.2668H37.3516V42.3541C37.3516 41.1612 38.3184 40.1948 39.5108 40.1948C40.7038 40.1948 41.6701 41.1616 41.6701 42.3541V45.2668H41.6706Z" fill="#80DEEA"/>
<path id="Vector_15" d="M43.0919 35.5976C43.0919 36.5703 42.3032 37.3586 41.3309 37.3586H37.6917C36.7189 37.3586 35.9307 36.5703 35.9307 35.5976C35.9307 34.6253 36.7189 33.8365 37.6917 33.8365H41.3309C42.3032 33.8365 43.0919 34.6253 43.0919 35.5976Z" fill="#FFC14F"/>
<path id="Vector_16" d="M41.3305 33.8365H41.2307C41.2961 34.021 41.3337 34.2188 41.3337 34.4257C41.3337 35.3984 40.5454 36.1872 39.5727 36.1872H36.0337C36.2763 36.8692 36.9259 37.359 37.6913 37.359H41.3305C42.3032 37.359 43.0915 36.5703 43.0915 35.5976C43.0919 34.6253 42.3032 33.8365 41.3305 33.8365Z" fill="#FFA90B"/>
<path id="Vector_17" d="M37.6917 33.8365C36.7189 33.8365 35.9307 34.6253 35.9307 35.5976C35.9307 36.5703 36.7189 37.3586 37.6917 37.3586H39.5108V33.8365H37.6917Z" fill="#E04955"/>
<path id="Vector_18" d="M39.5109 36.1871H36.0337C36.2585 36.8193 36.8339 37.2862 37.5278 37.3503C37.6533 37.3622 37.5324 37.359 39.5113 37.359V36.1871H39.5109Z" fill="#C62430"/>
<path id="Vector_19" d="M59.1211 11.4216H0.878906C0.393677 11.4216 0 11.8153 0 12.3005V25.2296C0 25.7153 0.393677 26.1085 0.878906 26.1085H59.1211C59.6068 26.1085 60 25.7153 60 25.2296V12.3005C60 11.8153 59.6068 11.4216 59.1211 11.4216Z" fill="#78C2A4"/>
<path id="Vector_20" d="M59.1211 11.4216H55.3125V15.309C55.3125 19.9791 51.5268 23.7648 46.8567 23.7648H0V25.2296C0 25.7153 0.393677 26.1085 0.878906 26.1085H59.1211C59.6063 26.1085 60 25.7153 60 25.2296V12.3005C60 11.8153 59.6063 11.4216 59.1211 11.4216Z" fill="#4FAB86"/>
<path id="Vector_21" d="M38.785 12.3006C38.785 17.1524 34.8519 21.0855 30 21.0855C25.1482 21.0855 21.2151 17.1524 21.2151 12.3006C21.2151 7.44873 25.1482 3.51562 30 3.51562C34.8519 3.51562 38.785 7.44873 38.785 12.3006Z" fill="#E04955"/>
<path id="Vector_22" d="M31.4022 3.62823C33.0625 5.22675 34.0975 7.47025 34.0975 9.95682C34.0975 14.8087 30.1644 18.7418 25.3125 18.7418C24.8351 18.7418 24.3672 18.7024 23.9104 18.6292C25.4897 20.1489 27.6348 21.0855 30 21.0855C34.8519 21.0855 38.785 17.1524 38.785 12.3006C38.785 7.92618 35.587 4.29977 31.4022 3.62823Z" fill="#C62430"/>
<path id="Vector_23" d="M34.309 10.6558H32.2248C31.9043 10.6558 31.6448 10.3962 31.6448 10.0763V7.99161C31.6448 7.67163 31.3852 7.41162 31.0652 7.41162H28.9353C28.6148 7.41162 28.3553 7.67163 28.3553 7.99161V10.0763C28.3553 10.3962 28.0957 10.6558 27.7758 10.6558H25.6911C25.3711 10.6558 25.1116 10.9153 25.1116 11.2358V13.3658C25.1116 13.6857 25.3711 13.9453 25.6911 13.9453H27.7758C28.0957 13.9453 28.3553 14.2048 28.3553 14.5248V16.6095C28.3553 16.9299 28.6148 17.1895 28.9353 17.1895H31.0652C31.3852 17.1895 31.6448 16.9299 31.6448 16.6095V14.5248C31.6448 14.2048 31.9043 13.9453 32.2248 13.9453H34.309C34.6294 13.9453 34.8889 13.6857 34.8889 13.3658V11.2358C34.8889 10.9153 34.6294 10.6558 34.309 10.6558Z" fill="#DCE6EB"/>
<g id="Group">
<path id="Vector_24" d="M34.8889 13.3658V11.2358C34.8889 10.9154 34.6294 10.6558 34.309 10.6558H34.0673C33.9743 11.8332 33.6502 12.9446 33.1389 13.9453H34.309C34.6294 13.9453 34.8889 13.6858 34.8889 13.3658Z" fill="#B9C3CD"/>
<path id="Vector_25" d="M31.0653 17.1895C31.3853 17.1895 31.6448 16.93 31.6448 16.6095V16.0424C31.2356 16.4681 30.7847 16.8531 30.2976 17.1895H31.0653Z" fill="#B9C3CD"/>
</g>
</g>
<defs>
<clipPath id="clip0_151_5920">
<rect width="60" height="60" fill="white"/>
</clipPath>
</defs>
</svg>
