<svg width="60" height="60" viewBox="0 0 60 60" fill="none" xmlns="http://www.w3.org/2000/svg">
<g id="image">
<path id="Vector" d="M49.0579 43.0482L38.8584 40.0483H21.1418L10.9423 43.0482C8.47117 43.7751 6.77429 46.043 6.77429 48.6187V57.0968C6.77429 58.7001 8.07414 60 9.6775 60H50.3227C51.926 60 53.2259 58.7001 53.2259 57.0968V48.6187C53.2259 46.043 51.5289 43.775 49.0579 43.0482Z" fill="#EDEBED"/>
<path id="Vector_2" d="M34.8386 59.9999H25.1613L23.2258 40.6451H36.7741L34.8386 59.9999Z" fill="#A5CDFF"/>
<path id="Vector_3" d="M30 44.5162C26.2586 44.5162 23.2257 41.4832 23.2257 37.742V30.9678H36.7741V37.742C36.7741 41.4832 33.7413 44.5162 30 44.5162Z" fill="#F7D291"/>
<path id="Vector_4" d="M23.2258 35.0623C25.259 36.1483 27.5645 36.7743 30 36.7743C32.4355 36.7743 34.741 36.1483 36.7741 35.0623V30.9678H23.2258V35.0623Z" fill="#F0C382"/>
<path id="Vector_5" d="M43.0645 18.3871H42.5806V8.70972H17.4193V18.3872H16.9354C15.6048 18.3872 14.5161 19.4758 14.5161 20.8065C14.5161 22.1372 15.6048 23.2259 16.9354 23.2259H17.4682C17.9639 29.7203 23.3785 34.8388 30 34.8388C36.6214 34.8388 42.0361 29.7203 42.5318 23.2259H43.0645C44.3952 23.2259 45.4838 22.1372 45.4838 20.8065C45.4838 19.4758 44.3952 18.3871 43.0645 18.3871Z" fill="#FFE1A0"/>
<g id="Group">
<path id="Vector_6" d="M24.1936 21.3744C23.6586 21.3744 23.2258 20.941 23.2258 20.4067V19.4389C23.2258 18.9046 23.6587 18.4712 24.1936 18.4712C24.7284 18.4712 25.1613 18.9046 25.1613 19.4389V20.4067C25.1613 20.9412 24.7284 21.3744 24.1936 21.3744Z" fill="#6E5A64"/>
<path id="Vector_7" d="M35.8064 21.3744C35.2714 21.3744 34.8386 20.941 34.8386 20.4067V19.4389C34.8386 18.9046 35.2715 18.4712 35.8064 18.4712C36.3413 18.4712 36.7741 18.9046 36.7741 19.4389V20.4067C36.7741 20.9412 36.3413 21.3744 35.8064 21.3744Z" fill="#6E5A64"/>
</g>
<g id="Group_2">
<path id="Vector_8" d="M25.1614 17.4194H23.2259C22.691 17.4194 22.2582 16.986 22.2582 16.4516C22.2582 15.9172 22.6911 15.4839 23.2259 15.4839H25.1614C25.6963 15.4839 26.1291 15.9172 26.1291 16.4516C26.1291 16.986 25.6962 17.4194 25.1614 17.4194Z" fill="#A06E50"/>
<path id="Vector_9" d="M36.7743 17.4194H34.8388C34.3039 17.4194 33.8711 16.986 33.8711 16.4516C33.8711 15.9172 34.304 15.4839 34.8388 15.4839H36.7743C37.3093 15.4839 37.742 15.9172 37.742 16.4516C37.742 16.986 37.3093 17.4194 36.7743 17.4194Z" fill="#A06E50"/>
</g>
<path id="Vector_10" d="M17.4193 8.70972V18.3872H17.0204C15.9186 18.3872 14.8895 19.0854 14.604 20.1497C14.1724 21.759 15.3909 23.226 16.9354 23.226H17.4682C17.9639 29.7204 23.3785 34.8389 30 34.8389C30.662 34.8389 31.3074 34.7744 31.9415 34.6759C25.9118 33.7452 21.2903 28.5486 21.2903 22.2582V16.3773C21.2903 14.1054 23.2091 12.2559 25.4734 12.4425C26.1071 12.4948 26.7726 12.5226 27.4719 12.5226C30.2781 12.5226 33.4113 12.0748 36.7849 11.1915C38.2589 10.8056 39.5267 9.90726 40.3929 8.70972H17.4193Z" fill="#F7D291"/>
<path id="Vector_11" d="M22.1371 4.83864L22.258 8.70957C22.258 8.70957 19.3548 11.6128 19.3548 15.4837V16.6783C19.3548 17.6544 18.628 18.4777 17.6593 18.5989L15.4838 18.8709V10.6452C15.4839 7.43832 18.508 4.67739 22.1371 4.83864Z" fill="#A06E50"/>
<path id="Vector_12" d="M41.5943 45.4653L39.6775 43.5484L41.7288 40.8133C42.1724 40.2218 41.9721 39.3732 41.3108 39.0424L36.7743 36.7742L30 60H35.8064L41.9568 47.6993C42.3293 46.9541 42.1833 46.0542 41.5943 45.4653Z" fill="#DBD9DC"/>
<path id="Vector_13" d="M48.387 53.7097H46.9354V52.2581C46.9354 51.7232 46.5025 51.2904 45.9676 51.2904C45.4328 51.2904 44.9999 51.7232 44.9999 52.258V53.7096H43.5483C43.0133 53.7096 42.5806 54.1425 42.5806 54.6774C42.5806 55.2122 43.0135 55.6451 43.5483 55.6451H44.9999V57.0967C44.9999 57.6317 45.4328 58.0644 45.9676 58.0644C46.5025 58.0644 46.9354 57.6315 46.9354 57.0967V55.6451H48.387C48.9219 55.6451 49.3547 55.2122 49.3547 54.6774C49.3547 54.1425 48.9218 53.7097 48.387 53.7097Z" fill="#A5CDFF"/>
<path id="Vector_14" d="M37.8629 1.93544L37.7419 8.70958C37.7419 8.70958 40.6451 11.6128 40.6451 15.4837V16.6783C40.6451 17.6544 41.3719 18.4777 42.3406 18.5989L44.5162 18.8709V7.74196C44.5162 4.53512 41.4921 1.77419 37.8629 1.93544Z" fill="#CD916E"/>
<path id="Vector_15" d="M29.9999 28.0645C28.5474 28.0645 27.2082 27.5985 26.4172 26.818C26.0363 26.4418 26.0326 25.8295 26.4077 25.4496C26.7848 25.0687 27.3972 25.0649 27.7761 25.4401C28.0983 25.7576 28.8733 26.129 29.9998 26.129C31.1263 26.129 31.9013 25.7576 32.2236 25.4401C32.6026 25.0648 33.215 25.0687 33.592 25.4496C33.9672 25.8295 33.9633 26.4419 33.5825 26.818C32.7917 27.5985 31.4525 28.0645 29.9999 28.0645Z" fill="#E3AA75"/>
<path id="Vector_16" d="M18.4058 45.4653L20.3227 43.5484L18.2713 40.8133C17.8277 40.2218 18.028 39.3732 18.6893 39.0424L23.2259 36.7742L30 60H24.1936L18.0432 47.6993C17.6707 46.9541 17.8167 46.0542 18.4058 45.4653Z" fill="#DBD9DC"/>
<path id="Vector_17" d="M31.875 0C23.801 0 22.2537 2.45449 16.0365 4.43473C15.6092 4.57078 15.4169 5.06566 15.6585 5.44336C17.0075 7.55367 22.0289 13.0542 36.2947 9.3191C37.9652 8.88176 39.2498 7.53481 39.5885 5.84145C39.9808 3.87961 38.7886 1.93664 36.996 1.04836C35.5721 0.342891 33.7049 0 31.875 0Z" fill="#B67F5F"/>
<path id="Vector_18" d="M20.3225 60H12.5805C12.046 60 11.6128 59.5668 11.6128 59.0323V55.1613C11.6128 54.6268 12.046 54.1936 12.5805 54.1936H20.3225C20.857 54.1936 21.2903 54.6268 21.2903 55.1613V59.0323C21.2903 59.5668 20.857 60 20.3225 60Z" fill="#A5CDFF"/>
<path id="Vector_19" d="M16.4516 56.1291C15.9167 56.1291 15.4839 55.6962 15.4839 55.1613V52.2581C15.4839 51.7232 15.9168 51.2904 16.4516 51.2904C16.9865 51.2904 17.4194 51.7233 17.4194 52.2581V55.1613C17.4194 55.6962 16.9866 56.1291 16.4516 56.1291Z" fill="white"/>
<path id="Vector_20" d="M20.3225 58.0645H12.5805C12.046 58.0645 11.6128 57.6312 11.6128 57.0968V59.0323C11.6128 59.5666 12.046 60 12.5805 60H20.3225C20.857 60 21.2903 59.5666 21.2903 59.0323V57.0968C21.2903 57.6312 20.857 58.0645 20.3225 58.0645Z" fill="#8CB4EB"/>
</g>
</svg>
