<svg width="65" height="70" viewBox="0 0 65 70" fill="none" xmlns="http://www.w3.org/2000/svg">
<defs>
<linearGradient id="paint0_linear_5938_16012" x1="68.8833" y1="28.0191" x2="-19.3579" y2="40.1844" gradientUnits="userSpaceOnUse">
<stop stop-color="#D6DCE8"/>
<stop offset="1" stop-color="white"/>
</linearGradient>
<linearGradient id="paint1_linear_5938_16012" x1="26.2964" y1="22.4521" x2="38.1983" y2="22.4521" gradientUnits="userSpaceOnUse">
<stop stop-color="#989FB0"/>
<stop offset="1" stop-color="#AAB2C5"/>
</linearGradient>
<radialGradient id="paint2_radial_5938_16012" cx="0" cy="0" r="1" gradientUnits="userSpaceOnUse" gradientTransform="translate(32.8718 30.1645) scale(5.56653 5.506)">
<stop stop-color="#989FB0"/>
<stop offset="1" stop-color="#AAB2C5"/>
</radialGradient>
<linearGradient id="paint3_linear_5938_16012" x1="32.2739" y1="26.0349" x2="32.2739" y2="31.0051" gradientUnits="userSpaceOnUse">
<stop stop-color="#D6DCE8"/>
<stop offset="1" stop-color="white"/>
</linearGradient>
<linearGradient id="paint4_linear_5938_16012" x1="32.3514" y1="19.779" x2="32.1506" y2="27.5259" gradientUnits="userSpaceOnUse">
<stop stop-color="#D6DCE8"/>
<stop offset="1" stop-color="white"/>
</linearGradient>
<linearGradient id="paint5_linear_5938_16012" x1="29.4382" y1="23.6142" x2="30.7949" y2="23.6142" gradientUnits="userSpaceOnUse">
<stop stop-color="#989FB0"/>
<stop offset="1" stop-color="#AAB2C5"/>
</linearGradient>
<linearGradient id="paint6_linear_5938_16012" x1="33.7432" y1="23.6142" x2="35.0999" y2="23.6142" gradientUnits="userSpaceOnUse">
<stop stop-color="#989FB0"/>
<stop offset="1" stop-color="#AAB2C5"/>
</linearGradient>
<linearGradient id="paint7_linear_5938_16012" x1="30.9778" y1="26.35" x2="33.5875" y2="26.35" gradientUnits="userSpaceOnUse">
<stop stop-color="#989FB0"/>
<stop offset="1" stop-color="#AAB2C5"/>
</linearGradient>
<linearGradient id="paint8_linear_5938_16012" x1="31.5387" y1="24.3817" x2="33.0038" y2="24.3817" gradientUnits="userSpaceOnUse">
<stop stop-color="#989FB0"/>
<stop offset="1" stop-color="#AAB2C5"/>
</linearGradient>
<linearGradient id="paint9_linear_5938_16012" x1="33.5235" y1="22.0685" x2="35.3147" y2="22.0685" gradientUnits="userSpaceOnUse">
<stop stop-color="#989FB0"/>
<stop offset="1" stop-color="#AAB2C5"/>
</linearGradient>
<linearGradient id="paint10_linear_5938_16012" x1="29.2343" y1="22.0685" x2="31.0255" y2="22.0685" gradientUnits="userSpaceOnUse">
<stop stop-color="#989FB0"/>
<stop offset="1" stop-color="#AAB2C5"/>
</linearGradient>
<linearGradient id="paint11_linear_5938_16012" x1="32.2786" y1="42.8663" x2="32.2786" y2="46.0097" gradientUnits="userSpaceOnUse">
<stop stop-color="#989FB0"/>
<stop offset="1" stop-color="#AAB2C5"/>
</linearGradient>
<linearGradient id="paint12_linear_5938_16012" x1="19.8995" y1="51.7781" x2="44.6389" y2="51.7781" gradientUnits="userSpaceOnUse">
<stop stop-color="#989FB0"/>
<stop offset="1" stop-color="#AAB2C5"/>
</linearGradient>
</defs>
<g id="Group 427319563">
<g id="Group">
<g id="Group 427319562">
<g id="Group_2">
<path id="Vector" d="M2.70717 3.43899C2.37198 2.59203 2.80621 1.632 3.66096 1.30045C4.51724 0.968897 5.48322 1.38638 5.81842 2.23335C6.15362 3.08031 5.73614 4.04633 4.87986 4.37789C4.02511 4.70944 3.04237 4.28445 2.70717 3.43899Z" fill="#D6DCE8"/>
<path id="Vector_2" d="M0.0722342 6.54798C-0.141073 6.00845 0.134701 5.39809 0.680159 5.1871C1.22562 4.97611 1.83964 5.24134 2.05295 5.78087C2.26625 6.3204 2.00114 6.93528 1.45568 7.14627C0.910221 7.35726 0.285542 7.0875 0.0722342 6.54798Z" fill="#D6DCE8"/>
<path id="Vector_3" d="M3.33527 62.1887C2.41805 62.1254 1.72785 61.3252 1.79337 60.4179C1.85888 59.5107 2.6542 58.828 3.57142 58.8913C4.48865 58.9546 5.19105 59.7428 5.12706 60.65C5.06307 61.5572 4.2525 62.2535 3.33527 62.1887Z" fill="#D6DCE8"/>
<path id="Vector_4" d="M5.05421 65.8715C4.47066 65.8308 4.03185 65.3214 4.07298 64.7442C4.11412 64.167 4.6215 63.7315 5.20504 63.7722C5.78859 63.8129 6.23654 64.3147 6.1954 64.8919C6.15274 65.4691 5.63776 65.9122 5.05421 65.8715Z" fill="#D6DCE8"/>
<path id="Vector_5" d="M61.9321 57.28C61.4293 56.519 61.6563 55.4912 62.4257 54.9939C63.1952 54.4965 64.2267 54.7105 64.7294 55.4716C65.2322 56.2326 65.022 57.2635 64.2526 57.7608C63.4831 58.2582 62.4349 58.0411 61.9321 57.28Z" fill="#D6DCE8"/>
<path id="Vector_6" d="M59.9908 60.8532C59.6709 60.3679 59.8156 59.7153 60.3047 59.3989C60.7938 59.0824 61.4504 59.218 61.7704 59.7033C62.0904 60.1871 61.9563 60.8441 61.4672 61.1606C60.9781 61.4771 60.3093 61.3385 59.9908 60.8532Z" fill="#D6DCE8"/>
</g>
<g id="Group_3">
<path id="Vector_7" d="M56.2619 5.47964V60.433C56.2619 63.4592 53.7814 65.9126 50.722 65.9126H13.829C10.7695 65.9126 8.28906 63.4592 8.28906 60.433V5.47964C8.28906 2.45347 10.7695 0 13.829 0H50.722C53.7814 0.00150706 56.2619 2.45498 56.2619 5.47964Z" fill="url(#paint0_linear_5938_16012)"/>
<g id="Group_4">
<g id="Group_5">
<path id="Vector_8" d="M18.5156 24.9977C18.5156 32.4923 24.6543 38.6019 32.2755 38.6019C39.8799 38.6019 46.0353 32.5104 46.0353 24.9977C46.0353 17.482 39.8738 11.3875 32.2755 11.3875C24.6787 11.389 18.5156 17.4835 18.5156 24.9977Z" fill="#D6DCE8"/>
<g id="Group_6">
<path id="Vector_9" d="M32.2725 39.1398C24.275 39.1398 17.9688 32.7182 17.9688 24.9991C17.9688 17.1985 24.3847 10.8508 32.2725 10.8508C40.1588 10.8508 46.5763 17.197 46.5763 24.9991C46.5763 32.7242 40.2624 39.1398 32.2725 39.1398ZM32.2725 11.9253C24.985 11.9253 19.0566 17.7893 19.0566 24.9976C19.0566 32.15 24.9043 38.0637 32.2725 38.0637C39.6591 38.0637 45.4885 32.132 45.4885 24.9976C45.4885 17.7893 39.56 11.9253 32.2725 11.9253Z" fill="#FEFEFF"/>
</g>
</g>
<path id="Vector_10" d="M26.2969 20.8983V27.4344C26.2969 28.7907 27.4091 29.8909 28.7804 29.8909H35.7144C37.0857 29.8909 38.1979 28.7907 38.1979 27.4344V20.8983C38.1979 17.6476 35.5331 15.0117 32.2466 15.0117C28.9602 15.0117 26.2969 17.6476 26.2969 20.8983Z" fill="url(#paint1_linear_5938_16012)"/>
<path id="Vector_11" d="M42.1996 33.514C39.7009 36.3668 36.1006 37.999 32.2747 37.999C28.4428 37.999 24.844 36.3668 22.3438 33.514C27.5271 27.4511 36.9934 27.4224 42.1996 33.514Z" fill="url(#paint2_radial_5938_16012)"/>
<path id="Vector_12" d="M35.7679 30.0702C35.1448 31.419 33.775 32.2871 32.2788 32.2871C30.778 32.2871 29.4083 31.419 28.7851 30.0702C28.6434 29.7673 28.8095 29.4071 29.1447 29.3167L29.1615 29.3107C29.8898 29.1088 30.3865 28.4863 30.3865 27.7599V26.2423C30.3865 25.9364 30.6287 25.6968 30.938 25.6968H33.615C33.9243 25.6968 34.1666 25.9364 34.1666 26.2423V27.7599C34.1666 28.4863 34.6633 29.1087 35.3977 29.3167C35.7466 29.4116 35.8974 29.7899 35.7679 30.0702Z" fill="url(#paint3_linear_5938_16012)"/>
<path id="Vector_13" d="M36.7008 21.0446V24.128C36.7008 25.2885 36.2361 26.3886 35.3996 27.2115C34.5692 28.0343 33.457 28.4925 32.2823 28.4925C29.8445 28.4925 27.8516 26.5333 27.8516 24.128V21.0446C27.8516 21.0084 27.8515 20.9723 27.8576 20.9421C30.1751 21.8117 32.8049 20.924 34.1822 18.9648H34.5982C35.7546 18.9648 36.7008 19.8947 36.7008 21.0446Z" fill="url(#paint4_linear_5938_16012)"/>
</g>
<g id="Group_7">
<path id="Vector_14" d="M30.7951 23.611C30.7951 23.9833 30.4903 24.2847 30.114 24.2847C29.7422 24.2847 29.4375 23.9833 29.4375 23.611C29.4375 23.2433 29.7422 22.9419 30.114 22.9419C30.4903 22.9434 30.7951 23.2448 30.7951 23.611Z" fill="url(#paint5_linear_5938_16012)"/>
<path id="Vector_15" d="M35.0997 23.611C35.0997 23.9833 34.795 24.2847 34.4187 24.2847C34.0469 24.2847 33.7422 23.9833 33.7422 23.611C33.7422 23.2433 34.0469 22.9419 34.4187 22.9419C34.795 22.9434 35.0997 23.2448 35.0997 23.611Z" fill="url(#paint6_linear_5938_16012)"/>
</g>
<path id="Vector_16" d="M33.4189 25.6968C33.5164 25.6968 33.5987 25.7781 33.5865 25.8731C33.4996 26.5091 32.9496 27.0019 32.2823 27.0019C31.6149 27.0019 31.0664 26.5091 30.978 25.8731C30.9643 25.7781 31.0481 25.6968 31.1456 25.6968H33.4189Z" fill="url(#paint7_linear_5938_16012)"/>
<g id="Group_8">
<path id="Vector_17" d="M32.2719 24.8786C31.8682 24.8786 31.5391 24.5531 31.5391 24.1538C31.5391 24.0046 31.6609 23.8855 31.8103 23.8855C31.9611 23.8855 32.0815 24.0061 32.0815 24.1538C32.0815 24.4009 32.4593 24.4009 32.4593 24.1538C32.4593 24.0046 32.5812 23.8855 32.7305 23.8855C32.8814 23.8855 33.0017 24.0061 33.0017 24.1538C33.0033 24.5531 32.6757 24.8786 32.2719 24.8786Z" fill="url(#paint8_linear_5938_16012)"/>
</g>
<g id="Group_9">
<g id="Group_10">
<path id="Vector_18" d="M35.0425 22.3373H33.7946C33.6438 22.3373 33.5234 22.2167 33.5234 22.069C33.5234 21.9198 33.6453 21.8008 33.7946 21.8008H35.0425C35.1933 21.8008 35.3137 21.9214 35.3137 22.069C35.3152 22.2167 35.1933 22.3373 35.0425 22.3373Z" fill="url(#paint9_linear_5938_16012)"/>
</g>
<g id="Group_11">
<path id="Vector_19" d="M30.7534 22.3373H29.5056C29.3547 22.3373 29.2344 22.2167 29.2344 22.069C29.2344 21.9198 29.3563 21.8008 29.5056 21.8008H30.7534C30.9043 21.8008 31.0246 21.9214 31.0246 22.069C31.0262 22.2167 30.9043 22.3373 30.7534 22.3373Z" fill="url(#paint10_linear_5938_16012)"/>
</g>
</g>
<path id="Vector_20" d="M49.3626 43.0748V47.1801C49.3626 47.7512 48.8948 48.2139 48.3174 48.2139H16.2405C15.6631 48.2139 15.1953 47.7512 15.1953 47.1801V43.0748C15.1953 42.5037 15.6631 42.041 16.2405 42.041H48.3174C48.8948 42.041 49.3626 42.5037 49.3626 43.0748Z" fill="url(#paint11_linear_5938_16012)"/>
<g id="Group_12">
<path id="Vector_21" d="M44.0951 52.316H20.4424C20.1422 52.316 19.8984 52.0749 19.8984 51.778C19.8984 51.4811 20.1422 51.24 20.4424 51.24H44.0951C44.3953 51.24 44.6391 51.4811 44.6391 51.778C44.6391 52.0749 44.3953 52.316 44.0951 52.316Z" fill="url(#paint12_linear_5938_16012)"/>
</g>
<g id="Group_13">
<path id="Vector_22" d="M45.1499 45.6654H19.4189C19.1188 45.6654 18.875 45.4243 18.875 45.1274C18.875 44.8305 19.1188 44.5894 19.4189 44.5894H45.1499C45.4501 44.5894 45.6938 44.8305 45.6938 45.1274C45.6938 45.4243 45.4516 45.6654 45.1499 45.6654Z" fill="#F9FAFD"/>
</g>
</g>
</g>
</g>
<g id="Group 427319547">
<path id="Vector_23" d="M57.7754 70H43.5482C41.198 70 39.7275 67.5097 40.9152 65.5434L47.9592 53.8877C49.1226 51.963 51.9854 51.9641 53.1711 53.8877L60.3543 65.5434C61.5659 67.5097 60.1256 70 57.7754 70Z" fill="#EF4949"/>
<g id="Group_14">
<path id="Vector_24" d="M52.2118 58.7215L51.6638 62.2574C51.5856 62.7605 51.1426 63.1313 50.6193 63.1313C50.096 63.1313 49.6485 62.7605 49.5641 62.2574L48.9733 58.7215C48.8689 58.0945 49.3631 57.5269 50.016 57.5269L51.1557 57.5269C51.8075 57.5269 52.3096 58.0934 52.2118 58.7215Z" fill="white"/>
<path id="Vector_25" d="M51.7209 65.4242L51.721 65.444C51.7246 66.0293 51.2373 66.5021 50.6358 66.5021C50.3351 66.5021 50.0625 66.3824 49.8634 66.1938C49.6643 66.0012 49.5396 65.7366 49.5378 65.444L49.5377 65.4242C49.5341 64.8347 50.0214 64.3618 50.6228 64.3618C50.9236 64.3618 51.1961 64.4816 51.3953 64.6701C51.5944 64.8628 51.7191 65.1315 51.7209 65.4242Z" fill="white"/>
</g>
</g>
</g>
</svg>
