<svg xmlns="http://www.w3.org/2000/svg" width="16" height="17" viewBox="0 0 16 17" fill="none">
  <path d="M12.4197 7.25455C12.4197 7.25455 11.1302 6.26672 10.4424 5.30559C10.1845 4.95852 9.35349 5.01191 9.06694 5.67936L4.59663 7.28124L1.64508 5.81285C1.18658 5.54587 0.584811 5.73276 0.326909 6.24002C0.0690062 6.72059 0.212285 7.33464 0.699434 7.60162L1.15793 7.8419C0.756746 7.78851 0.326909 7.97539 0.126318 8.34916C-0.131585 8.82973 0.0116945 9.44378 0.498844 9.71076L1.53045 10.2714C1.07196 10.0044 0.470188 10.1913 0.212285 10.6986C-0.0456171 11.1792 0.0976619 11.7932 0.584811 12.0602C0.584811 12.0602 5.77152 15.0504 7.54818 15.9314C8.95231 16.6523 11.7319 16.9993 13.4799 15.0237C14.0531 14.3295 12.4197 7.25455 12.4197 7.25455Z" fill="#D99B57"/>
  <path d="M14.5688 7.25469C13.6518 6.66733 13.0214 5.89309 12.5629 4.71837C12.391 4.3179 11.7606 4.23781 11.388 4.90526C10.8436 5.86639 11.3594 6.64063 11.6459 6.98771L11.7892 7.1479C11.7892 7.1479 11.8752 7.44157 12.0185 7.78865C11.2448 7.62846 10.3851 8.02893 9.78331 8.77647C9.15288 9.55072 7.66278 10.8856 7.03235 11.6599C6.25865 12.5943 6.45924 13.9292 7.31891 14.5166C7.31891 14.5166 11.8179 17.5868 14.7981 13.8224C17.1479 10.8856 15.4858 7.84204 14.5688 7.25469Z" fill="#FFDD67"/>
  <path d="M13.0501 8.376C13.5086 8.69637 13.6232 9.31043 13.2793 9.79099C12.9641 10.2716 12.305 10.405 11.8465 10.0847L4.71123 5.30572C4.25274 4.98535 4.13811 4.37129 4.48198 3.89073C4.7972 3.41016 5.45628 3.27667 5.91478 3.59705L13.0501 8.376Z" fill="#FFDD67"/>
  <path d="M9.35351 7.84188L4.79724 4.77161C4.53933 4.61142 4.3674 4.34444 4.45337 3.94397C4.13815 4.47793 4.33874 5.01189 4.71127 5.27887L9.26755 8.34914C9.72604 8.66952 9.81201 8.16226 9.35351 7.84188Z" fill="#EBA352"/>
  <path d="M10.729 9.31035C11.1875 9.63072 11.3021 10.2448 10.9582 10.7253C10.643 11.2059 9.98392 11.3394 9.52543 11.019L2.39013 6.21338C1.93163 5.893 1.81701 5.27895 2.16088 4.79838C2.47609 4.31782 3.13518 4.18433 3.59367 4.5047L10.729 9.31035Z" fill="#FFDD67"/>
  <path d="M7.97803 9.41714L2.47612 5.70612C2.21821 5.54593 2.04628 5.22555 2.13225 4.87848C1.81703 5.41244 1.98897 5.9998 2.39015 6.26678L7.92072 9.92441C8.35056 10.2448 8.43653 9.71082 7.97803 9.41714Z" fill="#EBA352"/>
  <path d="M10.2705 11.4462C10.729 11.7666 10.8436 12.3806 10.4997 12.8612C10.1845 13.3418 9.52542 13.4753 9.06693 13.1549L1.93163 8.34924C1.47314 8.02887 1.35851 7.41481 1.70238 6.93425C2.0176 6.45368 2.67668 6.32019 3.13517 6.64057L10.2705 11.4462Z" fill="#FFDD67"/>
  <path d="M6.88911 11.1258L2.01762 7.86861C1.75971 7.70842 1.58778 7.33465 1.7024 6.96088C1.32988 7.46814 1.47316 8.13559 1.87434 8.40257L6.80314 11.633C7.26163 11.9534 7.3476 11.4461 6.88911 11.1258Z" fill="#EBA352"/>
  <path d="M10.0699 13.849C10.5284 14.1694 7.26161 14.4898 6.80312 14.1694L1.75969 10.7787C1.3012 10.4584 1.18658 9.84432 1.53045 9.36375C1.84566 8.88319 2.50474 8.7497 2.96324 9.07007L10.0699 13.849Z" fill="#FFDD67"/>
  <path d="M15.973 11.0724C15.973 11.0724 15.4859 13.4219 13.48 14.8369C11.7033 16.0917 8.95233 14.9971 7.63416 14.1961C6.25868 13.3151 5.57095 12.8879 2.24687 10.5385C1.61644 10.0846 1.44451 9.79094 1.53047 9.31037C1.04332 9.79094 1.30123 10.5385 1.70241 10.8055L2.04628 11.019C2.04628 11.019 6.02944 13.7422 7.37626 14.5966C8.60846 15.3975 11.7893 16.6523 13.7952 15.1572C16.059 13.5287 15.973 11.0724 15.973 11.0724ZM12.563 8.00217C11.9899 7.44151 11.9612 6.64057 11.9612 6.64057L11.8179 6.48038C11.5887 6.2134 11.2161 5.65274 11.3594 4.98529C10.815 5.91972 11.3594 6.66727 11.6173 6.98764L11.7606 7.14783C11.7606 7.14783 11.7319 7.38811 11.8752 7.575L12.563 8.00217Z" fill="#EBA352"/>
  <path d="M9.64005 0.5L10.4997 3.75716L12.1904 0.740282L9.64005 0.5ZM13.8811 1.46113L12.5916 4.15763L15.6005 3.43678L13.8811 1.46113ZM7.46221 0.90047L8.26457 3.83725L5.62823 2.26207L7.46221 0.90047Z" fill="#42ADE2"/>
</svg>