<svg width="107" height="96" viewBox="0 0 107 96" fill="none" xmlns="http://www.w3.org/2000/svg">
<defs>
<linearGradient id="paint0_linear_420_4849" x1="70.7574" y1="55.6026" x2="73.9108" y2="112.015" gradientUnits="userSpaceOnUse">
<stop stop-color="#D6DCE8"/>
<stop offset="1" stop-color="white"/>
</linearGradient>
<linearGradient id="paint1_linear_420_4849" x1="37.6087" y1="50.8967" x2="35.5909" y2="121.382" gradientUnits="userSpaceOnUse">
<stop stop-color="#D6DCE8"/>
<stop offset="1" stop-color="white"/>
</linearGradient>
<linearGradient id="paint2_linear_420_4849" x1="54.3652" y1="38.1739" x2="104.968" y2="38.1739" gradientUnits="userSpaceOnUse">
<stop stop-color="#989FB0"/>
<stop offset="1" stop-color="#AAB2C5"/>
</linearGradient>
<linearGradient id="paint3_linear_420_4849" x1="90.0305" y1="27.3155" x2="73.878" y2="47.4256" gradientUnits="userSpaceOnUse">
<stop stop-color="#D6DCE8"/>
<stop offset="1" stop-color="white"/>
</linearGradient>
<linearGradient id="paint4_linear_420_4849" x1="17.1611" y1="24.5273" x2="34.9364" y2="48.3146" gradientUnits="userSpaceOnUse">
<stop stop-color="#D6DCE8"/>
<stop offset="1" stop-color="white"/>
</linearGradient>
<linearGradient id="paint5_linear_420_4849" x1="71.9586" y1="49.8749" x2="86.4571" y2="69.925" gradientUnits="userSpaceOnUse">
<stop stop-color="#D6DCE8"/>
<stop offset="1" stop-color="white"/>
</linearGradient>
<linearGradient id="paint6_linear_420_4849" x1="40.1251" y1="51.2466" x2="15.1611" y2="72.0143" gradientUnits="userSpaceOnUse">
<stop stop-color="#D6DCE8"/>
<stop offset="1" stop-color="white"/>
</linearGradient>
</defs>

<g id="Group">
<g id="Group_2">
<g id="Group_3">
<path id="Vector" d="M105.384 89.1797C104.457 89.1421 103.676 89.8416 103.636 90.7266C103.597 91.6116 104.315 92.3628 105.239 92.4004C106.165 92.438 106.959 91.7525 106.999 90.8651C107.038 89.9801 106.308 89.2172 105.384 89.1797Z" fill="#D6DCE8"/>
<path id="Vector_2" d="M97.4314 0.0024204C95.9782 -0.0586139 94.7479 1.04235 94.6842 2.4344C94.6205 3.82645 95.7502 5.00489 97.2035 5.06592C98.6567 5.12696 99.9066 4.04713 99.9703 2.65273C100.032 1.26068 98.8846 0.0634547 97.4314 0.0024204Z" fill="#D6DCE8"/>
</g>
<path id="Vector_3" d="M3.30119 77.6473C2.49738 78.8093 2.84782 80.3868 4.0609 81.1544C5.27397 81.922 6.90856 81.6051 7.71238 80.4407C8.51619 79.2787 8.1927 77.6965 6.97963 76.9266C5.7641 76.1613 4.10256 76.4853 3.30119 77.6473Z" fill="#D6DCE8"/>
<path id="Vector_4" d="M0.274861 72.1518C-0.234876 72.8913 -0.0143168 73.896 0.76009 74.3842C1.53205 74.8725 2.57358 74.6706 3.08331 73.9312C3.59305 73.1917 3.38964 72.1846 2.61524 71.694C1.84328 71.2057 0.787048 71.4123 0.274861 72.1518Z" fill="#D6DCE8"/>
<path id="Vector_5" d="M40.8425 21.673C40.5548 22.0888 40.6802 22.6534 41.1143 22.9281C41.5485 23.2028 42.1335 23.0894 42.4211 22.6727C42.7088 22.2569 42.593 21.6906 42.1589 21.4151C41.7239 21.1412 41.1293 21.2571 40.8425 21.673Z" fill="#D6DCE8"/>
<path id="Vector_6" d="M28.6391 7.85004C28.1294 8.58949 28.3499 9.59422 29.1243 10.0825C29.8963 10.5708 30.9378 10.3689 31.4476 9.62942C31.9573 8.88996 31.7539 7.88289 30.9795 7.39227C30.2075 6.90399 29.1513 7.11059 28.6391 7.85004Z" fill="#D6DCE8"/>
</g>
<g id="Group_4">
<path id="Vector_7" d="M54.3662 60.4969V96.0001L88.9156 86.0891C89.6875 85.8684 90.2095 85.1782 90.1875 84.4059L89.2439 49.5718L54.3662 60.4969Z" fill="url(#paint0_linear_420_4849)"/>
<path id="Vector_8" d="M54.3659 60.4969V96.0001L19.8165 86.0891C19.0446 85.8684 18.5226 85.1782 18.5446 84.4059L19.4881 49.5718L54.3659 60.4969Z" fill="url(#paint1_linear_420_4849)"/>
<path id="Vector_9" d="M19.5127 49.5458L54.3733 39.1958V60.5226L19.5127 49.5458Z" fill="#989FB0"/>
<path id="Vector_10" d="M89.2336 49.5458L54.373 39.1958V60.5226L89.2336 49.5458Z" fill="#AAB2C5"/>
<path id="Vector_11" d="M54.3662 39.2221L70.8395 27.0293C71.1802 26.7781 71.6286 26.7077 72.0354 26.8415L104.112 37.4896C105.1 37.8183 105.279 39.0859 104.414 39.6493L89.2439 49.5721L54.3662 39.2221Z" fill="url(#paint2_linear_420_4849)"/>
<path id="Vector_12" d="M54.3662 39.2221L70.8395 27.0293C71.1802 26.7781 71.6286 26.7077 72.0354 26.8415L104.112 37.4896C105.1 37.8183 105.279 39.0859 104.414 39.6493L89.2439 49.5721L54.3662 39.2221Z" fill="url(#paint3_linear_420_4849)"/>
<path id="Vector_13" d="M54.3666 39.2221L37.8933 27.0293C37.5527 26.7781 37.1042 26.7077 36.6974 26.8415L4.62076 37.4896C3.63315 37.8183 3.45425 39.0859 4.31933 39.6493L19.4889 49.5721L54.3666 39.2221Z" fill="url(#paint4_linear_420_4849)"/>
<path id="Vector_14" d="M54.3662 60.4969L71.0184 71.192C71.3468 71.4033 71.7561 71.4549 72.1286 71.3352L104.58 60.9969C105.607 60.6706 105.766 59.3443 104.847 58.802L89.2439 49.5718L54.3662 60.4969Z" fill="url(#paint5_linear_420_4849)"/>
<path id="Vector_15" d="M54.3662 60.4969L37.714 71.192C37.3856 71.4033 36.9763 71.4549 36.6038 71.3352L4.15224 60.9969C3.12542 60.6706 2.96613 59.3443 3.88512 58.802L19.4884 49.5718L54.3662 60.4969Z" fill="url(#paint6_linear_420_4849)"/>
</g>
</g>

</svg>
