<svg width="119" height="110" viewBox="0 0 119 110" fill="none" xmlns="http://www.w3.org/2000/svg">
<defs>
<linearGradient id="paint0_linear_466_10067" x1="99.152" y1="12.0422" x2="118.5" y2="12.0422" gradientUnits="userSpaceOnUse">
<stop stop-color="#989FB0"/>
<stop offset="1" stop-color="#AAB2C5"/>
</linearGradient>
<linearGradient id="paint1_linear_466_10067" x1="7.94424" y1="98.6843" x2="89.4489" y2="98.6843" gradientUnits="userSpaceOnUse">
<stop stop-color="#989FB0"/>
<stop offset="1" stop-color="#AAB2C5"/>
</linearGradient>
<linearGradient id="paint2_linear_466_10067" x1="44.4014" y1="26.9467" x2="82.04" y2="26.9467" gradientUnits="userSpaceOnUse">
<stop stop-color="#989FB0"/>
<stop offset="1" stop-color="#AAB2C5"/>
</linearGradient>
</defs>
<g id="Group">
<g id="Group_2">
<path id="Vector" d="M7.2096 7.61143C8.65098 8.25922 10.3544 7.60622 11.007 6.17535C11.6595 4.74708 11.0201 3.06126 9.58134 2.41346C8.14258 1.76566 6.42602 2.39269 5.77347 3.82096C5.12092 5.25183 5.77085 6.96363 7.2096 7.61143Z" fill="#D6DCE8"/>
<path id="Vector_2" d="M1.57543 11.8132C2.49268 12.2243 3.57763 11.8106 3.9917 10.9001C4.40577 9.98953 3.99957 8.91769 3.08495 8.50664C2.16771 8.09559 1.07751 8.49361 0.660817 9.40157C0.246748 10.3121 0.660814 11.4022 1.57543 11.8132Z" fill="#D6DCE8"/>
<path id="Vector_3" d="M112.187 107.104C113.387 108.127 115.209 107.973 116.238 106.784C117.268 105.595 117.132 103.8 115.932 102.778C114.732 101.755 112.908 101.878 111.878 103.069C110.848 104.258 110.987 106.082 112.187 107.104Z" fill="#D6DCE8"/>
<path id="Vector_4" d="M105.593 109.568C106.356 110.218 107.517 110.122 108.172 109.365C108.827 108.608 108.741 107.465 107.976 106.815C107.213 106.165 106.052 106.243 105.397 107C104.742 107.757 104.831 108.917 105.593 109.568Z" fill="#D6DCE8"/>
<path id="Vector_5" d="M107.265 2.58257C107.884 3.10809 108.819 3.03001 109.351 2.41864C109.883 1.80727 109.81 0.881117 109.194 0.355597C108.576 -0.169924 107.637 -0.107466 107.108 0.506509C106.576 1.11528 106.647 2.05445 107.265 2.58257Z" fill="#D6DCE8"/>
</g>
<g id="Group_3">
<path id="Vector_6" d="M118.5 15.2187V16.7042C118.5 17.6798 117.706 18.468 116.723 18.468H99.1543V15.2187C99.1543 9.91661 103.486 5.61621 108.827 5.61621C114.145 5.61621 118.5 9.8984 118.5 15.2187Z" fill="url(#paint0_linear_466_10067)"/>
<path id="Vector_7" d="M108.858 5.61328C103.473 5.61328 99.1537 9.90331 99.1537 15.1819V93.9008C99.1537 99.1794 94.8322 103.469 89.4493 103.469H28.3584V15.1845C28.3584 9.90591 32.6799 5.61589 38.0628 5.61589H108.858V5.61328Z" fill="#F1F3F9"/>
<path id="Vector_8" d="M78.5005 93.9014C79.2107 93.9014 79.7977 94.4321 79.8894 95.1319C80.4974 99.8304 84.5516 103.47 89.4497 103.47H17.4593C12.7185 103.47 8.76915 100.062 7.96722 95.5794C7.8126 94.7078 8.45992 93.9014 9.35095 93.9014H78.5005Z" fill="url(#paint1_linear_466_10067)"/>
</g>
<path id="Vector_9" d="M82.0407 22.1746V31.7198C82.0407 32.5706 81.3462 33.2626 80.4866 33.2626H45.9564C45.0994 33.2626 44.4023 32.5732 44.4023 31.7198V22.1746C44.4023 21.3238 45.0968 20.6318 45.9564 20.6318H80.4866C81.3435 20.6318 82.0407 21.3212 82.0407 22.1746Z" fill="url(#paint2_linear_466_10067)"/>
<g id="Group_4">
<path id="Vector_10" d="M87.9719 44.8799H37.5342V47.0184H87.9719V44.8799Z" fill="#E0E4ED"/>
<path id="Vector_11" d="M87.9719 52.4014H37.5342V54.5399H87.9719V52.4014Z" fill="#E0E4ED"/>
<path id="Vector_12" d="M87.9719 59.9219H37.5342V62.0604H87.9719V59.9219Z" fill="#E0E4ED"/>
<path id="Vector_13" d="M87.9719 67.4463H37.5342V69.5848H87.9719V67.4463Z" fill="#E0E4ED"/>
<path id="Vector_14" d="M76.2074 74.9678H49.3008V77.1063H76.2074V74.9678Z" fill="#E0E4ED"/>
</g>
</g>
</svg>
