<svg width="49" height="72" viewBox="0 0 49 72" fill="none" xmlns="http://www.w3.org/2000/svg">
<path d="M24.25 12C37.4688 12 48.25 22.7812 48.25 36C48.25 49.3125 37.4688 60 24.25 60C10.9375 60 0.25 49.3125 0.25 36C0.25 22.7812 10.9375 12 24.25 12ZM22 26.25V38.25C22 39.5625 22.9375 40.5 24.25 40.5C25.4688 40.5 26.5 39.5625 26.5 38.25V26.25C26.5 25.0312 25.4688 24 24.25 24C22.9375 24 22 25.0312 22 26.25ZM24.25 49.5C25.8438 49.5 27.1562 48.1875 27.1562 46.5938C27.1562 45 25.8438 43.6875 24.25 43.6875C22.5625 43.6875 21.25 45 21.25 46.5938C21.25 48.1875 22.5625 49.5 24.25 49.5Z" fill="#FFA149"/>
<path d="M24.75 40.5C23.4375 40.5 22.5 39.5625 22.5 38.25V26.25C22.5 25.0312 23.4375 24 24.75 24C25.9688 24 27 25.0312 27 26.25V38.25C27 39.5625 25.9688 40.5 24.75 40.5ZM24.75 43.6875C26.3438 43.6875 27.6562 45 27.6562 46.5938C27.6562 48.1875 26.3438 49.5 24.75 49.5C23.0625 49.5 21.75 48.1875 21.75 46.5938C21.75 45 23.0625 43.6875 24.75 43.6875Z" fill="#FFF6ED"/>
</svg>
